<svg width="58" height="58" viewBox="0 0 58 58" fill="none" xmlns="http://www.w3.org/2000/svg">
<path fill-rule="evenodd" clip-rule="evenodd" d="M55.6938 18.7483C55.6938 18.7483 56.4392 14.9297 53.2959 12.7051C50.1525 10.4805 47.0143 10.6908 47.0143 10.6908C47.0143 10.6908 46.7537 6.78021 41.791 4.90596C36.8335 3.0317 33.4555 4.57752 33.4555 4.57752C33.4555 4.57752 31.85 0.509342 26.3034 0.0626743C15.4658 -0.808766 17.6135 7.69544 17.6135 7.69544C17.6135 7.69544 15.1478 5.54969 16.1591 2.3836C14.3398 0.00136813 4.38316 1.37203 4.85232 6.52185C4.85232 6.52185 -1.59604 7.39767 0.37444 13.1649C2.02693 17.9995 8.31369 16.6551 8.31369 16.6551C6.92705 27.5984 6.86972 38.0119 8.86105 47.4051C8.99137 48.0226 9.85149 48.3247 10.4614 47.9656C15.5388 44.9835 29.0767 41.5459 39.5286 46.2271C39.5286 46.2271 23.379 42.9603 10.8576 50.939C10.232 51.3375 9.94533 52.0382 10.1121 52.6819C10.232 53.1417 10.3415 53.549 10.4666 54C10.6647 54.7095 11.65 55.0116 12.3641 54.5912C17.1548 51.7755 27.9976 48.0401 38.8092 49.9975C32.0689 54.797 22.5293 55.6641 17.822 55.5853C23.9107 56.68 35.5459 54.1621 41.2905 50.4836C41.9369 50.6194 42.5312 50.7595 43.0681 50.8865C34.1749 57.7967 20.6005 57.7223 14.4232 56.9778C22.1331 59.2155 40.9256 57.7792 45.3149 52.6688C45.7788 52.1302 45.8675 51.4339 45.6746 50.7902C44.0951 45.4696 43.8032 34.9422 44.9708 29.2319C45.122 28.483 45.0073 27.7167 44.6059 27.0379C43.5112 25.1812 41.7388 23.4295 39.5807 21.8487C37.1358 31.417 37.4799 41.0291 37.4799 41.0291C36.2288 35.2356 36.8335 23.596 37.0472 20.1846C35.2175 19.0986 33.2105 18.1527 31.1462 17.3382C27.7422 29.3764 28.1905 38.9359 28.1905 38.9359C26.6006 31.5791 27.4555 19.0636 27.6848 16.1252C24.2287 15.0786 20.7778 14.4918 17.8377 14.5356C33.2001 12.8234 43.089 19.7905 46.9517 25.387C48.9014 30.042 54.5261 28.4349 56.7416 26.0701C60.0935 22.4924 55.6886 18.7439 55.6886 18.7439L55.6938 18.7483Z" fill="#EEEADC"/>
</svg>
