<svg width="132" height="102" viewBox="0 0 132 102" fill="none" xmlns="http://www.w3.org/2000/svg">
<path fill-rule="evenodd" clip-rule="evenodd" d="M116.272 45.1841C114.872 45.3141 113.622 45.2541 112.522 45.0341C113.622 47.5441 120.062 49.2641 120.062 49.2641C120.062 49.2641 115.382 49.9741 110.862 47.0441C106.342 44.1141 105.862 37.9741 105.862 37.9741C105.072 34.5741 105.272 30.2341 106.122 25.5141C108.182 14.0941 89.7824 14.4141 79.4824 19.6441C77.7024 20.5441 76.1324 21.0341 74.7024 21.1641C77.5524 24.3841 84.5424 23.3341 84.5424 23.3341C84.5424 23.3341 79.7024 25.1541 75.5824 23.8841C71.4624 22.6141 68.4224 19.1141 68.4224 19.1141C64.8424 16.2941 61.6124 10.9041 56.8024 4.72409C47.9224 -6.69591 35.0724 5.04409 31.4324 14.0841C30.6824 15.9441 29.7124 17.4041 28.6124 18.5341C28.5224 18.6441 25.5224 22.2841 20.9524 24.2341C16.3124 26.2141 11.6724 24.5141 11.6724 24.5141C11.6724 24.5141 19.3024 25.2441 22.0324 21.5841C19.1724 21.8041 16.2924 20.9241 14.1524 19.4741C9.23242 16.1441 -4.71758 19.6341 1.62242 40.5641C4.30242 49.4041 11.0424 53.8641 17.3224 55.9841C19.7124 56.7941 22.3724 56.0041 24.0724 54.1441C40.8524 35.8041 77.6924 39.3241 88.4724 55.3141C63.5524 41.9541 35.7924 47.3941 25.9124 62.1641C24.7624 63.8841 24.2224 65.9541 24.3424 68.0241C24.4524 69.9941 24.6224 72.1641 24.7624 73.7041C25.5024 82.1741 26.9824 88.3941 28.1024 92.1341C28.7024 94.1241 31.1324 95.0341 32.7724 93.7541C40.5324 87.6941 65.3124 79.2241 83.0424 83.5441C70.1124 94.5041 51.8124 96.4841 42.7824 96.3041C54.4624 98.8041 76.7824 93.0541 87.8024 84.6441C89.0424 84.9641 90.1824 85.2741 91.2124 85.5641C74.1524 101.344 48.1124 101.174 36.2624 99.4741C50.9724 104.554 82.3424 99.7141 94.5424 89.5041C95.9424 88.3341 96.5724 86.5141 96.2524 84.7141C95.7224 81.7541 95.0124 76.7241 95.1924 72.0241C95.2524 70.3541 97.4224 69.6941 98.4224 71.0341C106.742 82.1141 113.882 76.0641 110.572 69.7441C106.922 62.7641 121.352 63.2441 129.122 59.1141C136.892 54.9941 126.742 44.2041 116.272 45.1541V45.1841Z" fill="#EEEADC"/>
</svg>
