<svg width="58" height="53" viewBox="0 0 58 53" fill="none" xmlns="http://www.w3.org/2000/svg">
<path fill-rule="evenodd" clip-rule="evenodd" d="M43.9545 12.5656C42.5133 1.18688 27.2531 -4.0523 18.4271 7.4688C18.4271 7.4688 19.2346 3.89294 22.6689 1.58363C20.0165 0.42898 14.0166 -1.53953 9.83107 2.07195C4.32185 6.83298 7.4802 13.0437 7.4802 13.0437C7.4802 13.0437 -2.49056 16.9146 0.591125 25.7907C1.08685 27.2149 2.03231 28.4611 3.04421 29.4581C4.13276 30.5263 5.8397 30.4805 6.96403 29.4479C14.1444 22.8506 32.0417 17.8251 43.0192 29.4886C35.0825 23.7815 17.7014 23.8679 9.53977 30.6433C8.44099 31.5588 7.89927 32.978 8.01681 34.4022C8.13946 35.9282 8.29278 37.8916 8.37455 38.8632C8.69652 42.5458 9.29957 45.3943 9.82085 47.3272C10.1837 48.6752 11.7629 49.194 12.9076 48.3852C18.9688 44.1176 32.4096 41.6506 38.1591 43.8633C31.5511 49.4382 22.1987 50.4453 17.5838 50.3537C23.553 51.6254 34.9598 48.7006 40.5917 44.4228C41.2203 44.5856 41.808 44.7432 42.3344 44.8908C33.6157 52.9174 20.3078 52.8309 14.2517 51.9662C22.0403 54.6417 38.9768 51.9001 44.6751 46.3201C44.997 46.0047 45.1146 45.5469 45.0277 45.1044C44.7415 43.6547 44.1589 40.1806 44.4144 37.1999C44.4911 36.3301 45.3548 35.7146 46.2031 35.9435C61.9233 40.1145 62.6745 16.4822 43.9545 12.5605V12.5656Z" fill="#EEEADC"/>
</svg>
