<svg width="58" height="53" viewBox="0 0 58 53" fill="none" xmlns="http://www.w3.org/2000/svg">
<path fill-rule="evenodd" clip-rule="evenodd" d="M45.1166 20.9317C45.3132 23.8326 46.4094 26.2659 46.4094 26.2659C46.4094 26.2659 44.2122 24.2396 43.2782 20.9057C34.3514 -11.0347 -1.05584 -0.890125 12.2901 15.1688C14.2465 17.5199 19.2014 18.6456 19.2014 18.6456C19.2014 18.6456 14.0204 18.8794 9.76836 15.8832C-2.96802 17.5372 -1.62605 26.8028 4.60205 30.4354C6.89273 31.769 9.84702 32.0201 12.3884 31.1065C23.7189 27.0453 35.1674 29.4093 41.5823 34.7955C41.5823 34.7955 27.032 27.9415 11.8722 34.4837C10.8351 34.9297 10.2353 35.8995 10.2796 36.9127C10.4959 41.8572 11.3954 48.3129 12.6293 50.7115C12.6293 50.7115 17.6186 46.8667 25.7245 44.9444C29.8438 43.9658 34.9265 44.4811 38.9377 45.2214C32.5818 49.9668 23.5862 50.8241 19.1474 50.7462C24.8888 51.8286 35.8605 49.339 41.2775 45.6977C41.8871 45.8363 42.4474 45.9705 42.9538 46.0961C34.5677 52.9284 21.7674 52.8547 15.9424 52.1187C23.1585 54.3139 38.5297 52.2313 44.5513 47.8323C45.2641 47.3127 45.5836 46.4901 45.4214 45.6847C45.0675 43.9139 44.5513 40.5064 45.2149 38.0731C62.341 49.0662 62.2132 21.4339 45.1215 20.923L45.1166 20.9317Z" fill="#EEEADC"/>
</svg>
