<svg width="28" height="23" viewBox="0 0 28 23" fill="none" xmlns="http://www.w3.org/2000/svg">
<path d="M16.8445 20.704L22.7325 8.54401L24.5245 8.288C24.3538 8.88534 24.0125 9.35467 23.5005 9.69601C22.9885 10.1227 22.3058 10.336 21.4525 10.336C20.1725 10.336 19.0632 9.86667 18.1245 8.928C17.1005 8.07467 16.5885 6.92267 16.5885 5.472C16.5885 4.02134 17.1432 2.784 18.2525 1.76C19.2765 0.736004 20.5138 0.224005 21.9645 0.224005C23.3298 0.224005 24.5245 0.736004 25.5485 1.76C26.5725 2.784 27.0845 4.02134 27.0845 5.472C27.0845 6.06934 26.9992 6.752 26.8285 7.52C26.6578 8.37334 26.2738 9.48267 25.6765 10.848L19.9165 22.368L16.8445 20.704ZM0.972503 20.704L6.8605 8.544L8.6525 8.288C8.48184 8.88534 8.1405 9.35467 7.6285 9.696C7.1165 10.1227 6.43384 10.336 5.5805 10.336C4.3005 10.336 3.19117 9.86667 2.2525 8.928C1.2285 8.07467 0.716504 6.92267 0.716504 5.472C0.716504 4.02133 1.27117 2.784 2.3805 1.76C3.4045 0.736002 4.64184 0.224004 6.0925 0.224004C7.45784 0.224004 8.6525 0.736003 9.6765 1.76C10.7005 2.784 11.2125 4.02133 11.2125 5.472C11.2125 6.06933 11.1272 6.752 10.9565 7.52C10.7858 8.37333 10.4018 9.48267 9.8045 10.848L4.0445 22.368L0.972503 20.704Z" fill="#A34F2B"/>
</svg>
