<svg width="22" height="21" viewBox="0 0 22 21" fill="none" xmlns="http://www.w3.org/2000/svg">
<circle cx="11" cy="10.5" r="10.5" fill="white"/>
<path d="M14.1969 7.2H14.2037M8.25 16H13.75C15.2688 16 16.5 14.7688 16.5 13.25V7.75C16.5 6.23122 15.2688 5 13.75 5H8.25C6.73122 5 5.5 6.23122 5.5 7.75V13.25C5.5 14.7688 6.73122 16 8.25 16ZM13.5781 10.5C13.5781 11.9239 12.4239 13.0781 11 13.0781C9.57614 13.0781 8.42188 11.9239 8.42188 10.5C8.42188 9.07614 9.57614 7.92188 11 7.92188C12.4239 7.92188 13.5781 9.07614 13.5781 10.5Z" stroke="#BC6805" stroke-linecap="round" stroke-linejoin="round"/>
</svg>
