<svg width="64" height="46" viewBox="0 0 64 46" fill="none" xmlns="http://www.w3.org/2000/svg">
<path d="M10.54 14.644C10.908 14.644 11.228 14.78 11.5 15.052C11.772 15.324 11.908 15.644 11.908 16.012C11.908 16.396 11.772 16.724 11.5 16.996C11.228 17.252 10.908 17.38 10.54 17.38H1.852C1.468 17.38 1.14 17.252 0.868 16.996C0.596 16.724 0.46 16.396 0.46 16.012V1.924C0.46 1.54 0.596 1.22 0.868 0.964C1.14 0.691999 1.46 0.555999 1.828 0.555999C2.212 0.539999 2.532 0.667999 2.788 0.939999C3.06 1.212 3.196 1.54 3.196 1.924L3.22 14.644H10.54ZM20.2645 0.555999C21.4325 0.555999 22.5285 0.779999 23.5525 1.228C24.5925 1.66 25.4965 2.26 26.2645 3.028C27.0325 3.796 27.6325 4.7 28.0645 5.74C28.5125 6.764 28.7365 7.86 28.7365 9.028C28.7365 10.196 28.5125 11.3 28.0645 12.34C27.6325 13.364 27.0325 14.26 26.2645 15.028C25.4965 15.796 24.5925 16.404 23.5525 16.852C22.5285 17.284 21.4325 17.5 20.2645 17.5C19.0965 17.5 17.9925 17.284 16.9525 16.852C15.9285 16.404 15.0325 15.796 14.2645 15.028C13.4965 14.26 12.8885 13.364 12.4405 12.34C12.0085 11.3 11.7925 10.196 11.7925 9.028C11.7925 7.86 12.0085 6.764 12.4405 5.74C12.8885 4.7 13.4965 3.796 14.2645 3.028C15.0325 2.26 15.9285 1.66 16.9525 1.228C17.9925 0.779999 19.0965 0.555999 20.2645 0.555999ZM20.2645 14.764C21.0645 14.764 21.8085 14.612 22.4965 14.308C23.2005 14.004 23.8085 13.596 24.3205 13.084C24.8325 12.572 25.2405 11.964 25.5445 11.26C25.8485 10.556 26.0005 9.812 26.0005 9.028C26.0005 8.228 25.8485 7.484 25.5445 6.796C25.2405 6.092 24.8325 5.484 24.3205 4.972C23.8085 4.46 23.2005 4.052 22.4965 3.748C21.8085 3.444 21.0645 3.292 20.2645 3.292C19.4805 3.292 18.7365 3.444 18.0325 3.748C17.3285 4.052 16.7205 4.46 16.2085 4.972C15.6965 5.484 15.2885 6.092 14.9845 6.796C14.6805 7.484 14.5285 8.228 14.5285 9.028C14.5285 9.812 14.6805 10.556 14.9845 11.26C15.2885 11.964 15.6965 12.572 16.2085 13.084C16.7205 13.596 17.3285 14.004 18.0325 14.308C18.7365 14.612 19.4805 14.764 20.2645 14.764ZM44.7462 9.004C44.7462 9.74 44.7462 10.42 44.7462 11.044C44.7622 11.572 44.7702 12.092 44.7702 12.604C44.7702 13.1 44.7622 13.452 44.7462 13.66C44.7302 13.964 44.6822 14.188 44.6022 14.332C44.5222 14.476 44.4742 14.564 44.4582 14.596C43.7542 15.556 42.8502 16.284 41.7462 16.78C40.6422 17.26 39.4582 17.5 38.1942 17.5C37.0262 17.5 35.9222 17.284 34.8822 16.852C33.8582 16.404 32.9622 15.796 32.1942 15.028C31.4262 14.26 30.8182 13.364 30.3702 12.34C29.9382 11.3 29.7222 10.196 29.7222 9.028C29.7222 7.86 29.9382 6.764 30.3702 5.74C30.8182 4.7 31.4262 3.796 32.1942 3.028C32.9622 2.26 33.8582 1.66 34.8822 1.228C35.9222 0.779999 37.0262 0.555999 38.1942 0.555999C39.2182 0.555999 40.1862 0.723999 41.0982 1.06C42.0102 1.396 42.8342 1.868 43.5702 2.476C43.8742 2.716 44.0422 3.028 44.0742 3.412C44.1062 3.78 44.0022 4.108 43.7622 4.396C43.5222 4.7 43.2102 4.868 42.8262 4.9C42.4582 4.932 42.1302 4.828 41.8422 4.588C41.3462 4.172 40.7862 3.852 40.1622 3.628C39.5542 3.404 38.8982 3.292 38.1942 3.292C37.4102 3.292 36.6662 3.444 35.9622 3.748C35.2582 4.052 34.6502 4.46 34.1382 4.972C33.6262 5.484 33.2182 6.092 32.9142 6.796C32.6102 7.484 32.4582 8.228 32.4582 9.028C32.4582 9.812 32.6102 10.556 32.9142 11.26C33.2182 11.964 33.6262 12.572 34.1382 13.084C34.6502 13.596 35.2582 14.004 35.9622 14.308C36.6662 14.612 37.4102 14.764 38.1942 14.764C38.9462 14.764 39.6502 14.644 40.3062 14.404C40.9782 14.148 41.5462 13.772 42.0102 13.276V10.396H38.0502C37.6662 10.396 37.3382 10.26 37.0662 9.988C36.7942 9.716 36.6582 9.396 36.6582 9.028C36.6582 8.644 36.7942 8.324 37.0662 8.068C37.3382 7.796 37.6662 7.66 38.0502 7.66H43.3542C43.7382 7.66 44.0582 7.796 44.3142 8.068C44.5862 8.324 44.7302 8.636 44.7462 9.004ZM54.6708 0.555999C55.8388 0.555999 56.9348 0.779999 57.9588 1.228C58.9988 1.66 59.9028 2.26 60.6708 3.028C61.4388 3.796 62.0388 4.7 62.4708 5.74C62.9188 6.764 63.1428 7.86 63.1428 9.028C63.1428 10.196 62.9188 11.3 62.4708 12.34C62.0388 13.364 61.4388 14.26 60.6708 15.028C59.9028 15.796 58.9988 16.404 57.9588 16.852C56.9348 17.284 55.8388 17.5 54.6708 17.5C53.5028 17.5 52.3988 17.284 51.3588 16.852C50.3348 16.404 49.4388 15.796 48.6708 15.028C47.9028 14.26 47.2948 13.364 46.8468 12.34C46.4148 11.3 46.1988 10.196 46.1988 9.028C46.1988 7.86 46.4148 6.764 46.8468 5.74C47.2948 4.7 47.9028 3.796 48.6708 3.028C49.4388 2.26 50.3348 1.66 51.3588 1.228C52.3988 0.779999 53.5028 0.555999 54.6708 0.555999ZM54.6708 14.764C55.4708 14.764 56.2148 14.612 56.9028 14.308C57.6068 14.004 58.2148 13.596 58.7268 13.084C59.2388 12.572 59.6468 11.964 59.9508 11.26C60.2548 10.556 60.4068 9.812 60.4068 9.028C60.4068 8.228 60.2548 7.484 59.9508 6.796C59.6468 6.092 59.2388 5.484 58.7268 4.972C58.2148 4.46 57.6068 4.052 56.9028 3.748C56.2148 3.444 55.4708 3.292 54.6708 3.292C53.8868 3.292 53.1428 3.444 52.4388 3.748C51.7348 4.052 51.1268 4.46 50.6148 4.972C50.1028 5.484 49.6948 6.092 49.3908 6.796C49.0868 7.484 48.9348 8.228 48.9348 9.028C48.9348 9.812 49.0868 10.556 49.3908 11.26C49.6948 11.964 50.1028 12.572 50.6148 13.084C51.1268 13.596 51.7348 14.004 52.4388 14.308C53.1428 14.612 53.8868 14.764 54.6708 14.764ZM12.556 28.556C12.924 28.556 13.244 28.692 13.516 28.964C13.788 29.22 13.924 29.54 13.924 29.924V44.132C13.924 44.5 13.788 44.82 13.516 45.092C13.244 45.364 12.924 45.5 12.556 45.5C12.172 45.5 11.844 45.364 11.572 45.092C11.3 44.82 11.164 44.5 11.164 44.132V38.396H3.196V44.132C3.196 44.5 3.06 44.82 2.788 45.092C2.532 45.364 2.212 45.5 1.828 45.5C1.46 45.5 1.14 45.364 0.868 45.092C0.596 44.82 0.46 44.5 0.46 44.132V29.924C0.46 29.54 0.596 29.22 0.868 28.964C1.14 28.692 1.46 28.556 1.828 28.556C2.212 28.556 2.532 28.692 2.788 28.964C3.06 29.22 3.196 29.54 3.196 29.924V35.66H11.164V29.924C11.164 29.54 11.3 29.22 11.572 28.964C11.844 28.692 12.172 28.556 12.556 28.556ZM27.547 42.644C27.931 42.644 28.259 42.78 28.531 43.052C28.803 43.324 28.939 43.652 28.939 44.036C28.939 44.404 28.803 44.724 28.531 44.996C28.259 45.268 27.931 45.404 27.547 45.404H17.203C16.835 45.404 16.515 45.268 16.243 44.996C15.971 44.724 15.835 44.404 15.835 44.036V29.996C15.835 29.628 15.971 29.308 16.243 29.036C16.515 28.764 16.835 28.628 17.203 28.628H27.547C27.931 28.628 28.259 28.764 28.531 29.036C28.803 29.308 28.939 29.628 28.939 29.996C28.939 30.38 28.803 30.708 28.531 30.98C28.259 31.252 27.931 31.388 27.547 31.388H18.571V35.66H26.371C26.755 35.66 27.083 35.796 27.355 36.068C27.627 36.324 27.763 36.644 27.763 37.028C27.763 37.396 27.627 37.716 27.355 37.988C27.083 38.26 26.755 38.396 26.371 38.396H18.571V42.644H27.547ZM43.9469 33.884C43.9469 34.988 43.6429 35.972 43.0349 36.836C42.4269 37.684 41.6429 38.3 40.6829 38.684L43.4189 43.436C43.6109 43.772 43.6589 44.124 43.5629 44.492C43.4669 44.86 43.2509 45.132 42.9149 45.308C42.5949 45.5 42.2509 45.548 41.8829 45.452C41.5149 45.356 41.2349 45.14 41.0429 44.804L37.7309 39.044H33.2429V44.132C33.2429 44.5 33.1069 44.82 32.8349 45.092C32.5789 45.364 32.2589 45.5 31.8749 45.5C31.5069 45.5 31.1869 45.364 30.9149 45.092C30.6429 44.82 30.5069 44.5 30.5069 44.132V30.02C30.5069 29.764 30.5629 29.556 30.6749 29.396C30.7869 29.172 30.9469 28.988 31.1549 28.844C31.3629 28.7 31.6029 28.628 31.8749 28.628H38.7629C39.4509 28.628 40.1149 28.764 40.7549 29.036C41.3949 29.292 41.9629 29.676 42.4589 30.188C42.9389 30.684 43.3069 31.252 43.5629 31.892C43.8349 32.516 43.9629 33.18 43.9469 33.884ZM41.2109 33.86C41.2109 33.54 41.1469 33.228 41.0189 32.924C40.9069 32.604 40.7309 32.332 40.4909 32.108C40.0109 31.628 39.4349 31.388 38.7629 31.388H33.2429V36.308H38.7629C39.0989 36.308 39.4109 36.244 39.6989 36.116C40.0029 35.988 40.2669 35.812 40.4909 35.588C40.7149 35.364 40.8909 35.108 41.0189 34.82C41.1469 34.516 41.2109 34.196 41.2109 33.86ZM57.3595 42.644C57.7435 42.644 58.0715 42.78 58.3435 43.052C58.6155 43.324 58.7515 43.652 58.7515 44.036C58.7515 44.404 58.6155 44.724 58.3435 44.996C58.0715 45.268 57.7435 45.404 57.3595 45.404H47.0155C46.6475 45.404 46.3275 45.268 46.0555 44.996C45.7835 44.724 45.6475 44.404 45.6475 44.036V29.996C45.6475 29.628 45.7835 29.308 46.0555 29.036C46.3275 28.764 46.6475 28.628 47.0155 28.628H57.3595C57.7435 28.628 58.0715 28.764 58.3435 29.036C58.6155 29.308 58.7515 29.628 58.7515 29.996C58.7515 30.38 58.6155 30.708 58.3435 30.98C58.0715 31.252 57.7435 31.388 57.3595 31.388H48.3835V35.66H56.1835C56.5675 35.66 56.8955 35.796 57.1675 36.068C57.4395 36.324 57.5755 36.644 57.5755 37.028C57.5755 37.396 57.4395 37.716 57.1675 37.988C56.8955 38.26 56.5675 38.396 56.1835 38.396H48.3835V42.644H57.3595Z" fill="#232020"/>
</svg>
