<svg width="28" height="23" viewBox="0 0 28 23" fill="none" xmlns="http://www.w3.org/2000/svg">
<path d="M11.1555 2.296L5.2675 14.456L3.4755 14.712C3.64617 14.1147 3.9875 13.6453 4.4995 13.304C5.0115 12.8773 5.69417 12.664 6.5475 12.664C7.8275 12.664 8.93683 13.1333 9.8755 14.072C10.8995 14.9253 11.4115 16.0773 11.4115 17.528C11.4115 18.9787 10.8568 20.216 9.7475 21.24C8.7235 22.264 7.48617 22.776 6.0355 22.776C4.67017 22.776 3.4755 22.264 2.4515 21.24C1.4275 20.216 0.915501 18.9787 0.915501 17.528C0.915501 16.9307 1.00083 16.248 1.1715 15.48C1.34217 14.6267 1.72617 13.5173 2.3235 12.152L8.0835 0.631996L11.1555 2.296ZM27.0275 2.296L21.1395 14.456L19.3475 14.712C19.5182 14.1147 19.8595 13.6453 20.3715 13.304C20.8835 12.8773 21.5662 12.664 22.4195 12.664C23.6995 12.664 24.8088 13.1333 25.7475 14.072C26.7715 14.9253 27.2835 16.0773 27.2835 17.528C27.2835 18.9787 26.7288 20.216 25.6195 21.24C24.5955 22.264 23.3582 22.776 21.9075 22.776C20.5422 22.776 19.3475 22.264 18.3235 21.24C17.2995 20.216 16.7875 18.9787 16.7875 17.528C16.7875 16.9307 16.8728 16.248 17.0435 15.48C17.2142 14.6267 17.5982 13.5173 18.1955 12.152L23.9555 0.631996L27.0275 2.296Z" fill="#A34F2B"/>
</svg>
