<svg width="22" height="21" viewBox="0 0 22 21" fill="none" xmlns="http://www.w3.org/2000/svg">
<circle cx="11" cy="10.5" r="10.5" fill="white"/>
<path d="M9.0624 8.52022C9.27884 8.37563 9.43539 8.27876 9.29447 7.85859C9.15354 7.43842 9.04572 7.06878 8.70542 7.57971C8.2058 8.33029 9.18735 9.74692 10.1078 10.5511C11.0282 11.3552 12.5783 12.1504 13.255 11.5545C13.7157 11.1487 13.3349 11.0914 12.8996 11.0082C12.4643 10.925 12.3893 11.0931 12.2751 11.327M16.5 9.5C16.5 12.5376 14.0376 15 11 15C9.99821 15 9.05898 14.7322 8.25 14.2642L5.5 15L6.33939 12.4218C5.80757 11.5752 5.5 10.5735 5.5 9.5C5.5 6.46243 7.96243 4 11 4C14.0376 4 16.5 6.46243 16.5 9.5Z" stroke="#BC6805" stroke-linecap="round" stroke-linejoin="round"/>
</svg>
